#!OML:ASF H:\LiuWeirdWalks\Patient Classification 1\Patient 1\Session 1\male.ASF
:FULLY-SPECIFIED
:DEGREES
823
root 0.632687 17.341 4.36862 5.54829 8.42425 -13.0273
lowerback 16.2174 -1.53748 -5.90458
upperback 1.67417 -3.42092 -4.68017
thorax -7.25619 -1.53929 -0.918754
lowerneck -20.147 0.820841 6.119
upperneck 20.4699 -2.25595 6.02726
head 9.91611 0.168006 0.793175
rclavicle -3.26007e-014 -1.27222e-014
rhumerus -17.1947 -51.3253 16.4358
rradius 26.6119
rwrist 7.18788
rhand -17.0104 6.36899
rfingers 7.12502
rthumb 9.22535 -23.4092
lclavicle -3.26007e-014 -1.27222e-014
lhumerus -12.2707 35.4518 9.59897
lradius 26.6329
lwrist -7.58146
lhand -13.498 0.255699
lfingers 7.12502
lthumb 12.6131 29.8549
rfemur 4.07094 -7.61006 27.6349
rtibia 38.2657
rfoot 0.807607 -11.9649
rtoes -25.6685
lfemur -37.6966 0.347061 1.89617
ltibia 49.2599
lfoot -10.5297 7.26433
ltoes -14.4638
824
root 0.645031 17.3493 4.4315 5.68012 8.46335 -13.1348
lowerback 16.1199 -1.55872 -5.99639
upperback 1.64308 -3.46715 -4.79785
thorax -7.23753 -1.56072 -0.986322
lowerneck -20.1227 0.804063 6.06971
upperneck 20.4651 -2.31717 6.25528
head 9.91608 0.162456 0.872701
rclavicle -2.46493e-014 3.18055e-015
rhumerus -17.0696 -51.2571 16.5178
rradius 26.7041
rwrist 7.17027
rhand -17.0044 6.37247
rfingers 7.12502
rthumb 9.23109 -23.4055
lclavicle -2.46493e-014 3.18055e-015
lhumerus -12.432 35.5619 9.55897
lradius 26.5866
lwrist -7.64722
lhand -13.4527 0.241001
lfingers 7.12502
lthumb 12.6568 29.8375
rfemur 4.29823 -7.60431 27.7595
rtibia 37.7746
rfoot 1.28956 -12.0016
rtoes -25.8552
lfemur -37.6243 0.28289 2.00223
ltibia 49.2902
lfoot -10.7289 7.44252
ltoes -14.3252
825
root 0.657052 17.3576 4.49414 5.80741 8.46819 -13.2398
lowerback 16.0169 -1.56536 -6.09783
upperback 1.609 -3.49525 -4.91306
thorax -7.21878 -1.57308 -1.05001
lowerneck -20.096 0.796042 6.05542
upperneck 20.446 -2.368 6.45203
head 9.90984 0.160035 0.93684
rclavicle 1.74931e-014 4.13472e-014
rhumerus -16.9433 -51.2561 16.6007
rradius 26.7661
rwrist 7.21474
rhand -17.0058 6.39892
rfingers 7.12502
rthumb 9.22977 -23.3791
lclavicle 1.74931e-014 4.13472e-014
lhumerus -12.5855 35.7045 9.51301
lradius 26.5333
lwrist -7.74417
lhand -13.4256 0.20822
lfingers 7.12502
lthumb 12.6829 29.8031
rfemur 4.51924 -7.56525 27.8767
rtibia 37.2924
rfoot 1.78154 -12.0129
rtoes -26.0439
lfemur -37.522 0.238519 2.10581
ltibia 49.3041
lfoot -10.9292 7.63209
ltoes -14.1986
826
root 0.669111 17.3662 4.55633 5.93244 8.45367 -13.3121
lowerback 15.9146 -1.56217 -6.22949
upperback 1.57211 -3.51631 -5.03612
thorax -7.20236 -1.58114 -1.10682
lowerneck -20.086 0.79418 6.06338
upperneck 20.4577 -2.41817 6.63581
head 9.91757 0.159859 0.99339
rclavicle -2.14687e-014 3.18055e-015
rhumerus -16.8437 -51.2901 16.6997
rradius 26.8047
rwrist 7.33259
rhand -17.0009 6.47838
rfingers 7.12502
rthumb 9.2345 -23.2994
lclavicle -2.14687e-014 3.18055e-015
lhumerus -12.7409 35.8616 9.44911
lradius 26.4786
lwrist -7.88835
lhand -13.3836 0.106833
lfingers 7.12502
lthumb 12.7234 29.6992
rfemur 4.74174 -7.51331 27.9497
rtibia 36.8152
rfoot 2.27952 -11.9898
rtoes -26.2261
lfemur -37.3929 0.202033 2.16933
ltibia 49.2988
lfoot -11.1293 7.83267
ltoes -14.0884
827
root 0.681492 17.3747 4.61827 6.04981 8.43293 -13.3721
lowerback 15.8172 -1.55702 -6.36468
upperback 1.53259 -3.53594 -5.16083
thorax -7.1914 -1.58826 -1.1637
lowerneck -20.0876 0.800426 6.09525
upperneck 20.487 -2.46146 6.79619
head 9.93325 0.163057 1.03914
rclavicle 3.81667e-014 -9.54166e-015
rhumerus -16.7378 -51.2725 16.7774
rradius 26.8421
rwrist 7.39996
rhand -17.0137 6.61619
rfingers 7.12502
rthumb 9.22208 -23.1621
lclavicle 3.81667e-014 -9.54166e-015
lhumerus -12.8966 35.9734 9.37607
lradius 26.444
lwrist -7.97609
lhand -13.3371 0.0301124
lfingers 7.12502
lthumb 12.7682 29.6197
rfemur 4.97161 -7.4642 27.9987
rtibia 36.3405
rfoot 2.7897 -11.933
rtoes -26.3826
lfemur -37.2423 0.171287 2.2145
ltibia 49.2784
lfoot -11.3287 8.03327
ltoes -14.0071
828
root 0.694064 17.3836 4.67985 6.17047 8.40676 -13.3947
lowerback 15.7184 -1.54704 -6.52737
upperback 1.48751 -3.55455 -5.29322
thorax -7.18465 -1.59396 -1.21386
lowerneck -20.1031 0.809126 6.14976
upperneck 20.5334 -2.50469 6.92933
head 9.95702 0.165981 1.07198
rclavicle -3.49861e-014 -1.49486e-013
rhumerus -16.6533 -51.1936 16.8578
rradius 26.8901
rwrist 7.43186
rhand -17.0263 6.64322
rfingers 7.12502
rthumb 9.20996 -23.1356
lclavicle -3.49861e-014 -1.49486e-013
lhumerus -13.0519 36.038 9.2977
lradius 26.4259
lwrist -8.01447
lhand -13.2993 -0.0330572
lfingers 7.12502
lthumb 12.8047 29.5542
rfemur 5.20217 -7.42044 27.9984
rtibia 35.8669
rfoot 3.31732 -11.837
rtoes -26.5595
lfemur -37.0819 0.138319 2.21554
ltibia 49.247
lfoot -11.5232 8.23704
ltoes -13.9447
829
root 0.706324 17.3919 4.74073 6.28175 8.38295 -13.4211
lowerback 15.6306 -1.53749 -6.68572
upperback 1.43718 -3.57383 -5.41897
thorax -7.18949 -1.59963 -1.25898
lowerneck -20.0979 0.802881 6.16581
upperneck 20.5743 -2.56143 7.09129
head 9.97598 0.162375 1.11912
rclavicle 1.59028e-014 0
rhumerus -16.5755 -51.0782 16.9311
rradius 26.9487
rwrist 7.443
rhand -17.0456 6.57569
rfingers 7.12502
rthumb 9.19138 -23.204
lclavicle 1.59028e-014 0
lhumerus -13.2131 36.0353 9.21136
lradius 26.4295
lwrist -7.97194
lhand -13.2717 -0.0766324
lfingers 7.12502
lthumb 12.8312 29.509
rfemur 5.43651 -7.37563 28.0025
rtibia 35.3963
rfoot 3.84711 -11.726
rtoes -26.8486
lfemur -36.9161 0.109392 2.22203
ltibia 49.2128
lfoot -11.7118 8.4286
ltoes -13.9037
830
root 0.718596 17.3996 4.80146 6.38306 8.35941 -13.4614
lowerback 15.5316 -1.52904 -6.82075
upperback 1.39853 -3.58754 -5.5382
thorax -7.1765 -1.60384 -1.3117
lowerneck -20.1008 0.786717 6.15609
upperneck 20.5995 -2.62645 7.2651
head 9.99135 0.153757 1.17331
rclavicle 3.65764e-014 1.59028e-014
rhumerus -16.4841 -50.8082 16.952
rradius 27.0565
rwrist 7.03283
rhand -17.1967 6.302
rfingers 7.12502
rthumb 9.04558 -23.484
lclavicle 3.65764e-014 1.59028e-014
lhumerus -13.3479 36.0441 9.13361
lradius 26.4279
lwrist -7.88754
lhand -13.2709 -0.0798368
lfingers 7.12502
lthumb 12.8321 29.5057
rfemur 5.67305 -7.327 28.0201
rtibia 34.9314
rfoot 4.37799 -11.6049
rtoes -27.2336
lfemur -36.746 0.0849831 2.24455
ltibia 49.1828
lfoot -11.899 8.60698
ltoes -13.8841
831
root 0.730491 17.4071 4.86194 6.47761 8.33404 -13.5014
lowerback 15.4381 -1.52223 -6.95957
upperback 1.35641 -3.60414 -5.65061
thorax -7.16945 -1.60901 -1.35431
lowerneck -20.1176 0.766947 6.12455
upperneck 20.6514 -2.69675 7.45126
head 10.0195 0.144066 1.23521
rclavicle -1.66979e-014 -9.22361e-014
rhumerus -16.3353 -50.3994 16.883
rradius 27.2029
rwrist 6.11438
rhand -17.499 5.9489
rfingers 7.12502
rthumb 8.75385 -23.8496
lclavicle -1.66979e-014 -9.22361e-014
lhumerus -13.4986 36.0282 9.03949
lradius 26.4418
lwrist -7.75422
lhand -13.2746 -0.041133
lfingers 7.12502
lthumb 12.8285 29.5447
rfemur 5.90465 -7.27153 28.0403
rtibia 34.4736
rfoot 4.9551 -11.4646
rtoes -27.5948
lfemur -36.5734 0.0629655 2.26983
ltibia 49.1606
lfoot -12.0846 8.77212
ltoes -13.8706
832
root 0.742216 17.4138 4.92207 6.55871 8.30445 -13.5715
lowerback 15.3413 -1.51733 -7.06542
upperback 1.32285 -3.61543 -5.75133
thorax -7.15261 -1.61287 -1.40397
lowerneck -20.1472 0.728791 6.02804
upperneck 20.7003 -2.78669 7.68995
head 10.0511 0.126585 1.32356
rclavicle 1.43125e-014 9.54166e-015
rhumerus -16.1802 -49.9052 16.7717
rradius 27.3879
rwrist 4.8396
rhand -17.9136 5.50496
rfingers 7.12502
rthumb 8.35371 -24.3099
lclavicle 1.43125e-014 9.54166e-015
lhumerus -13.6476 36.0601 8.92964
lradius 26.4479
lwrist -7.66533
lhand -13.2602 -0.0116539
lfingers 7.12502
lthumb 12.8424 29.5733
rfemur 6.13216 -7.20314 28.0946
rtibia 34.0256
rfoot 5.5782 -11.3226
rtoes -27.863
lfemur -36.3969 0.0507607 2.3305
ltibia 49.1484
lfoot -12.2703 8.91965
ltoes -13.8654
833
root 0.754133 17.4202 4.98264 6.63062 8.26667 -13.6695
lowerback 15.2256 -1.51392 -7.13931
upperback 1.29232 -3.62007 -5.84336
thorax -7.12335 -1.61484 -1.46395
lowerneck -20.1954 0.692018 5.92752
upperneck 20.7637 -2.8772 7.92956
head 10.0917 0.109869 1.41335
rclavicle -1.90833e-014 9.54166e-015
rhumerus -16.0205 -49.392 16.638
rradius 27.5798
rwrist 3.41894
rhand -18.338 5.22459
rfingers 7.12502
rthumb 7.94416 -24.6061
lclavicle -1.90833e-014 9.54166e-015
lhumerus -13.7953 36.1287 8.79637
lradius 26.4403
lwrist -7.63471
lhand -13.2264 -0.0189481
lfingers 7.12502
lthumb 12.8749 29.5639
rfemur 6.35486 -7.12537 28.1772
rtibia 33.5882
rfoot 6.26237 -11.169
rtoes -27.931
lfemur -36.2133 0.0453172 2.42386
ltibia 49.1445
lfoot -12.4603 9.0554
ltoes -13.8629
834
root 0.76693 17.4267 5.04327 6.70268 8.22425 -13.7446
lowerback 15.1062 -1.50922 -7.21882
upperback 1.25488 -3.6245 -5.94246
thorax -7.09964 -1.61645 -1.52857
lowerneck -20.2103 0.654714 5.83874
upperneck 20.8021 -2.96428 8.16004
head 10.1172 0.0926065 1.49793
rclavicle 2.46493e-014 0
rhumerus -15.8541 -48.8772 16.487
rradius 27.7768
rwrist 1.78464
rhand -18.8674 4.89304
rfingers 7.12502
rthumb 7.43316 -24.9564
lclavicle 2.46493e-014 0
lhumerus -13.9342 36.2622 8.63994
lradius 26.4031
lwrist -7.72887
lhand -13.1594 -0.118563
lfingers 7.12502
lthumb 12.9395 29.4602
rfemur 6.57046 -7.05836 28.2248
rtibia 33.1657
rfoot 7.04017 -11.003
rtoes -27.676
lfemur -36.0237 0.0296722 2.48885
ltibia 49.1431
lfoot -12.6517 9.19337
ltoes -13.8621
835
root 0.780487 17.4332 5.10436 6.77188 8.1882 -13.8152
lowerback 14.9731 -1.50852 -7.27985
upperback 1.21759 -3.62953 -6.04431
thorax -7.06943 -1.6192 -1.60664
lowerneck -20.2054 0.618155 5.75601
upperneck 20.7998 -3.04423 8.38229
head 10.1242 0.0756126 1.57886
rclavicle 7.95139e-015 -9.54166e-015
rhumerus -15.6358 -48.0149 16.2234
rradius 28.0956
rwrist -0.86378
rhand -19.7996 4.31764
rfingers 7.12502
rthumb 6.53332 -25.5616
lclavicle 7.95139e-015 -9.54166e-015
lhumerus -14.06 36.376 8.48153
lradius 26.3717
lwrist -7.81016
lhand -13.1103 -0.197837
lfingers 7.12502
lthumb 12.9868 29.378
rfemur 6.78138 -7.01188 28.2606
rtibia 32.7602
rfoot 7.87588 -10.8399
rtoes -27.2006
lfemur -35.8294 0.0109478 2.54472
ltibia 49.1402
lfoot -12.8469 9.32508
ltoes -13.8719
836
root 0.794402 17.4398 5.16549 6.84807 8.14819 -13.8534
lowerback 14.8313 -1.50522 -7.35613
upperback 1.17247 -3.63386 -6.15558
thorax -7.04259 -1.62113 -1.68679
lowerneck -20.1759 0.573808 5.66806
upperneck 20.7695 -3.12732 8.60142
head 10.1167 0.0542625 1.65836
rclavicle -6.36111e-015 -4.77083e-014
rhumerus -15.3409 -46.5225 15.7648
rradius 28.6582
rwrist -5.75826
rhand -21.5458 3.67264
rfingers 7.12502
rthumb 4.84732 -26.2519
lclavicle -6.36111e-015 -4.77083e-014
lhumerus -14.1655 36.4428 8.33361
lradius 26.355
lwrist -7.80776
lhand -13.1088 -0.18801
lfingers 7.12502
lthumb 12.9883 29.3877
rfemur 6.97767 -6.97607 28.2588
rtibia 32.3765
rfoot 8.75109 -10.6895
rtoes -26.5981
lfemur -35.6314 -0.00749364 2.56147
ltibia 49.1282
lfoot -13.0415 9.45728
ltoes -13.883
